<svg xmlns="http://www.w3.org/2000/svg" width="601" height="613" viewBox="0 0 601 613"><defs></defs><style>path {
fill: #6d718d;}</style><path transform="translate(300.5,0)" d="M-100,121C-100,88,-101,72,-111,62C-116,55,-125,50,-138,50L-174,50L-174,192L-138,192C-125,192,-116,187,-111,181C-101,170,-100,154,-100,121ZM-123,121C-123,146,-123,160,-127,166C-130,170,-133,172,-139,172L-152,172L-152,70L-139,70C-133,70,-130,73,-127,76C-123,83,-123,96,-123,121ZM-3,192L-24,129C-11,122,-8,110,-8,92C-8,63,-18,50,-44,50L-80,50L-80,192L-58,192L-58,134L-45,134L-26,192ZM-30,92C-30,104,-32,114,-44,114L-58,114L-58,70L-44,70C-32,70,-30,80,-30,92ZM96,192L62,50L40,50L5,192L28,192L34,164L67,164L73,192ZM63,144L38,144L51,84ZM178,154L178,115L142,115L142,133L156,133L156,156C156,165,151,174,142,174C136,174,133,172,131,168C127,162,126,147,126,121C126,95,127,81,131,74C133,71,136,69,142,69C154,69,155,80,156,88L178,88C178,76,174,65,167,58C161,52,153,48,142,48C128,48,120,54,114,61C105,72,104,87,104,121C104,155,105,171,114,182C120,189,128,194,142,194C163,194,178,180,178,154Z"/><path transform="translate(300.5,191)" d="M-53,70L-53,50L-123,50L-123,70L-99,70L-99,192L-77,192L-77,70ZM36,192L36,50L14,50L14,110L-14,110L-14,50L-37,50L-37,192L-14,192L-14,130L14,130L14,192ZM120,192L120,172L82,172L82,131L115,131L115,111L82,111L82,70L120,70L120,50L60,50L60,192Z"/><path transform="translate(300.5,382)" d="M-208,192L-243,50L-265,50L-300,192L-276,192L-271,164L-238,164L-232,192ZM-242,144L-266,144L-254,84ZM-119,192L-119,50L-142,50L-142,135L-175,50L-195,50L-195,192L-173,192L-173,108L-139,192ZM-27,153C-27,129,-31,120,-48,113L-65,106C-75,102,-77,99,-77,87C-77,81,-76,76,-73,73C-71,71,-68,69,-63,69C-59,69,-55,71,-53,73C-50,77,-50,82,-50,88L-28,88C-28,75,-30,65,-38,57C-43,52,-52,49,-63,49C-73,49,-81,52,-88,57C-95,64,-99,75,-99,88C-99,110,-94,117,-79,123L-62,130C-51,135,-49,139,-49,154C-49,161,-50,166,-53,170C-55,172,-58,174,-64,174C-69,174,-72,172,-74,170C-77,166,-78,161,-78,154L-100,154C-100,169,-98,178,-91,184C-85,190,-76,194,-64,194C-51,194,-42,190,-36,184C-29,177,-27,168,-27,153ZM125,50L101,50L87,158L67,50L42,50L23,158L9,50L-16,50L11,192L34,192L55,84L75,192L98,192ZM198,192L198,172L160,172L160,131L193,131L193,111L160,111L160,70L198,70L198,50L138,50L138,192ZM294,192L273,129C286,122,290,110,290,92C290,63,279,50,253,50L217,50L217,192L240,192L240,134L252,134L271,192ZM267,92C267,104,265,114,253,114L240,114L240,70L253,70C265,70,267,80,267,92Z"/></svg>